<?xml version="1.0" encoding="utf-8"?>
<!-- Generator: Adobe Illustrator 19.0.0, SVG Export Plug-In . SVG Version: 6.00 Build 0)  -->
<svg version="1.1" id="Layer_1" xmlns="http://www.w3.org/2000/svg" xmlns:xlink="http://www.w3.org/1999/xlink" x="0px" y="0px"
	 viewBox="0 0 512 512" style="enable-background:new 0 0 512 512;" xml:space="preserve">
<g id="XMLID_1_">
	<path id="XMLID_8_" d="M456,184.7c15.9-16.8,25.2-38.2,25.2-60.6c0-48.5-39.2-87.7-87.7-87.7c-28,0-54.1,14-70.9,37.3
		c-15.9-4.7-32.6-8.4-50.4-9.3V31.7H304V0H208v31.7h31.7v32.6c-17.7,0.9-34.5,4.7-50.4,9.3c-16.8-23.3-42-37.3-70.9-37.3
		c-48.5,0-87.7,39.2-87.7,87.7c0,23.3,9.3,44.8,25.2,60.6c-15.9,30.8-25.2,66.2-25.2,102.6c0,55,19.6,104.5,52.2,143.6l-41,55
		l25.2,19.6l38.2-51.3c40.1,35.4,92.3,57.8,149.2,57.8s110-21.4,149.2-57.8l38.2,51.3l25.2-19.6l-41-55
		c32.6-39.2,52.2-89.5,52.2-143.6C481.2,250.9,471.9,215.4,456,184.7z M393.6,68.1c30.8,0,55,25.2,55,55c0,12.1-3.7,23.3-11.2,32.6
		c-21.4-29.8-50.4-54.1-83.9-70.9C363.7,74.6,378.6,68.1,393.6,68.1z M64.3,124c0-30.8,25.2-55,55-55c14.9,0,29.8,6.5,40.1,17.7
		c-33.6,15.9-62.5,41-83.9,70.9C68.1,147.4,64.3,135.2,64.3,124z M256.5,480.3c-106.3,0-192.1-86.7-192.1-192.1s85.8-193,192.1-193
		s192.1,86.7,192.1,192.1S362.8,480.3,256.5,480.3z M272.3,287.2H401V319H240.6V191.2h31.7V287.2z"/>
</g>
</svg>
