<svg id="Group_807" data-name="Group 807" xmlns="http://www.w3.org/2000/svg" xmlns:xlink="http://www.w3.org/1999/xlink" width="64" height="64" viewBox="0 0 64 64">
  <defs>
    <clipPath id="clip-path">
      <circle id="Ellipse_12" data-name="Ellipse 12" cx="32" cy="32" r="32" fill="#fff"/>
    </clipPath>
  </defs>
  <circle id="Ellipse_11" data-name="Ellipse 11" cx="32" cy="32" r="32" fill="#fff"/>
  <g id="Group_90" data-name="Group 90" clip-path="url(#clip-path)">
    <path id="Path_22" data-name="Path 22" d="M1348.974,324.243h-3.316L1344,327.114l1.658,2.872h3.316l1.658-2.872Z" transform="translate(-1338.56 -302.764)"/>
    <path id="Path_23" data-name="Path 23" d="M1397.946,373.215h-3.316l-1.658,2.872,1.658,2.872h3.316l1.658-2.872Z" transform="translate(-1379.697 -343.901)"/>
    <path id="Path_24" data-name="Path 24" d="M1446.919,422.187H1443.6l-1.658,2.872,1.658,2.872h3.316l1.658-2.872Z" transform="translate(-1420.834 -385.037)"/>
    <path id="Path_25" data-name="Path 25" d="M1495.891,471.16h-3.316l-1.658,2.872,1.658,2.872h3.316l1.658-2.872Z" transform="translate(-1461.97 -426.174)"/>
    <path id="Path_26" data-name="Path 26" d="M1544.863,520.132h-3.316L1539.889,523l1.658,2.872h3.316l1.658-2.872Z" transform="translate(-1503.107 -467.311)"/>
    <path id="Path_27" data-name="Path 27" d="M1593.836,569.1h-3.316l-1.658,2.872,1.658,2.872h3.316l1.658-2.872Z" transform="translate(-1544.244 -508.447)"/>
    <path id="Path_28" data-name="Path 28" d="M1297.974,375.243h-3.316L1293,378.114l1.658,2.872h3.316l1.658-2.872Z" transform="translate(-1295.72 -345.604)"/>
    <path id="Path_29" data-name="Path 29" d="M1346.946,424.215h-3.316l-1.659,2.872,1.659,2.872h3.316l1.658-2.872Z" transform="translate(-1336.857 -386.74)"/>
    <path id="Path_30" data-name="Path 30" d="M1395.919,473.187H1392.6l-1.658,2.872,1.658,2.872h3.316l1.658-2.872Z" transform="translate(-1377.993 -427.877)"/>
    <path id="Path_31" data-name="Path 31" d="M1444.891,522.159h-3.316l-1.658,2.872,1.658,2.872h3.316l1.658-2.872Z" transform="translate(-1419.13 -469.014)"/>
    <path id="Path_32" data-name="Path 32" d="M1493.863,571.132h-3.316L1488.889,574l1.658,2.872h3.316l1.658-2.872Z" transform="translate(-1460.267 -510.151)"/>
    <path id="Path_33" data-name="Path 33" d="M1297.946,473.215h-3.316l-1.658,2.872,1.658,2.872h3.316l1.658-2.872Z" transform="translate(-1295.697 -427.901)"/>
    <path id="Path_34" data-name="Path 34" d="M1346.918,522.187H1343.6l-1.658,2.872,1.658,2.872h3.316l1.658-2.872Z" transform="translate(-1336.833 -469.037)"/>
    <path id="Path_35" data-name="Path 35" d="M1296.919,572.187H1293.6l-1.658,2.872,1.658,2.872h3.316l1.658-2.872Z" transform="translate(-1294.834 -511.037)"/>
    <path id="Path_36" data-name="Path 36" d="M1395.891,571.16h-3.316l-1.658,2.872,1.658,2.872h3.316l1.658-2.872Z" transform="translate(-1377.97 -510.174)"/>
    <path id="Path_37" data-name="Path 37" d="M1397.818,272.719H1394.5l-1.658,2.872,1.658,2.872h3.316l1.658-2.872Z" transform="translate(-1379.589 -259.484)"/>
    <path id="Path_38" data-name="Path 38" d="M1446.791,321.692h-3.316l-1.658,2.872,1.658,2.872h3.316l1.658-2.872Z" transform="translate(-1420.726 -300.621)"/>
    <path id="Path_39" data-name="Path 39" d="M1495.762,370.664h-3.316l-1.658,2.872,1.658,2.872h3.316l1.658-2.872Z" transform="translate(-1461.863 -341.758)"/>
    <path id="Path_40" data-name="Path 40" d="M1544.735,419.636h-3.316l-1.658,2.872,1.658,2.872h3.316l1.658-2.872Z" transform="translate(-1502.999 -382.894)"/>
    <path id="Path_41" data-name="Path 41" d="M1593.707,468.608h-3.316l-1.658,2.872,1.658,2.872h3.316l1.658-2.872Z" transform="translate(-1544.135 -424.031)"/>
    <path id="Path_42" data-name="Path 42" d="M1642.679,517.581h-3.316l-1.658,2.872,1.658,2.872h3.316l1.658-2.872Z" transform="translate(-1585.273 -465.168)"/>
    <path id="Path_43" data-name="Path 43" d="M1693.679,568.581h-3.316l-1.658,2.872,1.658,2.871h3.316l1.658-2.871Z" transform="translate(-1628.113 -508.008)"/>
    <path id="Path_44" data-name="Path 44" d="M1446.818,223.719H1443.5l-1.658,2.872,1.658,2.872h3.316l1.658-2.872Z" transform="translate(-1420.749 -218.324)"/>
    <path id="Path_45" data-name="Path 45" d="M1295.974,271.243h-3.316L1291,274.114l1.658,2.872h3.316l1.658-2.872Z" transform="translate(-1294.04 -258.244)"/>
    <path id="Path_46" data-name="Path 46" d="M1346.818,221.719H1343.5l-1.658,2.872,1.658,2.872h3.316l1.658-2.872Z" transform="translate(-1336.749 -216.644)"/>
    <path id="Path_47" data-name="Path 47" d="M1295.818,170.719H1292.5l-1.658,2.872,1.658,2.872h3.316l1.658-2.872Z" transform="translate(-1293.909 -173.804)"/>
    <path id="Path_48" data-name="Path 48" d="M1395.818,172.719H1392.5l-1.658,2.872,1.658,2.872h3.316l1.658-2.872Z" transform="translate(-1377.909 -175.484)"/>
    <path id="Path_49" data-name="Path 49" d="M1495.79,272.692h-3.316l-1.658,2.872,1.658,2.872h3.316l1.658-2.872Z" transform="translate(-1461.886 -259.461)"/>
    <path id="Path_50" data-name="Path 50" d="M1544.762,321.664h-3.316l-1.658,2.872,1.658,2.872h3.316l1.658-2.872Z" transform="translate(-1503.022 -300.598)"/>
    <path id="Path_51" data-name="Path 51" d="M1593.735,370.636h-3.316l-1.658,2.872,1.658,2.872h3.316l1.658-2.872Z" transform="translate(-1544.159 -341.734)"/>
    <path id="Path_52" data-name="Path 52" d="M1642.707,419.608h-3.315l-1.658,2.872,1.658,2.872h3.315l1.658-2.872Z" transform="translate(-1585.296 -382.871)"/>
    <path id="Path_53" data-name="Path 53" d="M1691.68,468.581h-3.316l-1.658,2.872,1.658,2.872h3.316l1.658-2.872Z" transform="translate(-1626.433 -424.008)"/>
    <path id="Path_54" data-name="Path 54" d="M1498.818,171.719H1495.5l-1.658,2.872,1.658,2.872h3.316l1.658-2.872Z" transform="translate(-1464.429 -174.644)"/>
    <path id="Path_55" data-name="Path 55" d="M1547.79,220.692h-3.316l-1.658,2.872,1.658,2.872h3.316l1.658-2.872Z" transform="translate(-1505.566 -215.781)"/>
    <path id="Path_56" data-name="Path 56" d="M1596.762,269.664h-3.316l-1.658,2.872,1.658,2.872h3.316l1.658-2.872Z" transform="translate(-1546.702 -256.918)"/>
    <path id="Path_57" data-name="Path 57" d="M1645.735,318.636h-3.316l-1.658,2.872,1.658,2.872h3.316l1.658-2.872Z" transform="translate(-1587.839 -298.054)"/>
    <path id="Path_58" data-name="Path 58" d="M1694.707,367.608h-3.316l-1.658,2.872,1.658,2.872h3.316l1.658-2.872Z" transform="translate(-1628.976 -339.191)"/>
    <path id="Path_59" data-name="Path 59" d="M1596.291,172.192h-3.316l-1.658,2.872,1.658,2.872h3.316l1.658-2.872Z" transform="translate(-1546.306 -175.041)"/>
    <path id="Path_60" data-name="Path 60" d="M1645.263,221.164h-3.316l-1.658,2.872,1.658,2.872h3.316l1.658-2.872Z" transform="translate(-1587.443 -216.178)"/>
    <path id="Path_61" data-name="Path 61" d="M1694.235,270.136h-3.316l-1.658,2.872,1.658,2.872h3.316l1.658-2.872Z" transform="translate(-1628.579 -257.314)"/>
    <path id="Path_62" data-name="Path 62" d="M1694.762,171.664h-3.316l-1.658,2.872,1.658,2.872h3.316l1.658-2.872Z" transform="translate(-1629.022 -174.598)"/>
  </g>
</svg>
