<?xml version="1.0" encoding="utf-8"?>
<!-- Generator: Adobe Illustrator 24.2.0, SVG Export Plug-In . SVG Version: 6.00 Build 0)  -->
<svg version="1.1" id="Layer_1" xmlns="http://www.w3.org/2000/svg" xmlns:xlink="http://www.w3.org/1999/xlink" x="0px" y="0px"
	 viewBox="0 0 512 512" style="enable-background:new 0 0 512 512;" xml:space="preserve">
<style type="text/css">
	.st0{fill:#FFD028;}
</style>
<g id="XMLID_1_">
	<path id="XMLID_5_" class="st0" d="M326.3,255.7l144.2-144.2c10.3-10.3,10.3-26,0-36.2C422,26.7,357.8,0,290.1,0
		C148.6,0,33.8,114.8,33.8,256.3S148.6,512,290.1,512c67.7,0,131.9-26.7,180.5-75.2c10.3-10.3,10.3-26,0-36.2L326.3,255.7z
		 M251.1,179.1c-21.2,0-38.3-17.1-38.3-38.3s17.1-38.3,38.3-38.3s38.3,17.1,38.3,38.3S272.3,179.1,251.1,179.1z"/>
</g>
</svg>
